# xmcd
#
# Track frame offsets: 
#        150
#        19292
#        39980
#        63754
#        80465
#        97030
#        115545
#        134262
#        152575
#        166165
#        179754
#        196202
#        219127
#        259062
#        276532
#        290693
#        308040
#
# Disc length: 4344 seconds
#
# Revision: 0
# Processed by: cddbd v1.5.2PL0 Copyright (c) Steve Scherf et al.
# Submitted via: ExactAudioCopy v1.0b3
#
DISCID=eb10f611
DTITLE=Billy Preston and Syreeta - Billy Preston and Syreeta [Expanded]
DYEAR=1981
DGENRE=Soul
TTITLE0=Someone Special
TTITLE1=Searchin'
TTITLE2=Just For You
TTITLE3=It's So Easy
TTITLE4=A Long And Lasting Love
TTITLE5=Love
TTITLE6=One More Try
TTITLE7=Hey You
TTITLE8=A New Way To Say I Love You
TTITLE9=What We Did For Love
TTITLE10=With You I'm Born Again (Single)
TTITLE11=With You I'm Born Again (UK Single)
TTITLE12=Go For It (12'' Single)
TTITLE13=Go For It (UK Single)
TTITLE14=It Will Come In Time (Single B Side)
TTITLE15=One More Time For Love (Single)
TTITLE16=Please Stay (Single)
EXTD=
EXTT0=
EXTT1=
EXTT2=
EXTT3=
EXTT4=
EXTT5=
EXTT6=
EXTT7=
EXTT8=
EXTT9=
EXTT10=
EXTT11=
EXTT12=
EXTT13=
EXTT14=
EXTT15=
EXTT16=
PLAYORDER=
